<svg width="730" height="380" viewBox="0 0 730 380" fill="none" xmlns="http://www.w3.org/2000/svg">
<g clip-path="url(#clip0_2360_3098)">
<path d="M0 0V380H729.012V0H0Z" fill="white"/>
<path d="M16.9111 32.9089C16.9111 24.0724 24.0746 16.9089 32.9111 16.9089H696.102C704.939 16.9089 712.102 24.0724 712.102 32.9089V347.09C712.102 355.926 704.939 363.09 696.102 363.09H32.9111C24.0746 363.09 16.9111 355.926 16.9111 347.09V32.9089Z" fill="#268053"/>
<path d="M642.848 249.457V41.032H434.055V336.99L454.934 357.537H663.727L642.848 336.99V293.258L670.526 293.322L679.001 293.342V284.867C679 268.803 664.532 251.113 642.848 249.457Z" fill="white"/>
<path d="M485.913 94.0151C485.913 107.848 496.438 118.402 510.175 118.402C523.907 118.402 534.462 107.848 534.462 94.0151C534.462 80.2081 523.909 69.6541 510.175 69.6541C496.44 69.6531 485.913 80.2081 485.913 94.0151ZM513.11 124.44C505.315 124.267 504.424 126.711 500.704 130.68C490.597 143.136 480.355 155.482 469.981 167.716C468.626 169.343 467.862 170.036 464.629 170.009C458.65 169.908 453.402 170.017 448.775 170.287H428.884C422.405 170.287 417.196 175.501 417.196 181.979C417.196 188.457 422.407 193.669 428.884 193.669H470.661C470.948 193.671 471.22 193.684 471.507 193.684C471.696 193.684 471.79 193.662 471.972 193.658C472.092 193.656 472.21 193.651 472.327 193.643C477.265 193.548 478.333 192.675 481.866 189.144L503.29 163.818C509.233 176.813 514.829 187.864 520.747 200.413C521.413 201.695 522.993 204.578 521.81 206.822L462.93 325.721L484.532 325.649C495.825 325.897 500.534 318.102 504.505 311.127C520.433 279.023 536.435 246.944 552.39 214.84L555.4 271.972C556.187 281.861 562.869 284.371 571.623 284.644L670.549 284.871C670.549 273.502 659.281 258.482 640.936 257.769C640.936 257.769 605.604 258.165 587.133 258.24C584.789 258.24 584.151 256.933 583.877 254.984C583.02 240.287 582.203 225.494 581.291 210.796C580.721 203.499 580.078 198.442 577.961 192.92C571.061 178.125 564.154 163.401 557.246 148.658L582.525 148.363C583.187 148.34 583.705 148.486 584.05 149.078L602.347 181.131C609.894 194.893 630.285 184.856 623.451 170.26L601.013 132.731C597.068 126.863 595.265 124.839 585.013 124.521C585.013 124.521 537.101 124.445 513.113 124.445V124.442H513.11V124.44ZM528.049 359.525H496.336L468.745 333.098H500.459L528.049 359.525Z" fill="#268053"/>
<path d="M266.009 308.146L184.303 226.439H321.864V153.559H185.214L266.92 71.854H176.732L58.1279 190.455L175.82 308.145H266.009V308.146Z" fill="white"/>
</g>
<defs>
<clipPath id="clip0_2360_3098">
<rect width="729.012" height="380" rx="32" fill="white"/>
</clipPath>
</defs>
</svg>
