<svg width="158" height="71" viewBox="0 0 158 71" fill="none" xmlns="http://www.w3.org/2000/svg">
<path d="M13.4458 12.9492C1.9458 13.4492 19.9458 59.4492 6.9458 63.9492" stroke="black" stroke-width="2" stroke-linecap="round"/>
<path d="M1.007 24.2001C0.445801 -6.55078 33.7854 -0.751221 33.6672 25.4339C33.631 33.4483 19.9658 40.9155 20.0407 40.6552C20.4554 39.2144 33.626 49.609 34.9149 50.6079C40.7966 55.1664 49.9016 61.611 57.7606 58.3723C64.8522 55.4499 67.1152 42.0349 64.7746 35.6499C62.9817 30.7589 51.4464 29.2485 47.4464 36.4492C42.21 45.8756 45.9464 53.4492 52.1548 57.0161C60.4464 61.7799 67.2692 49.7677 65.4464 38.4084C64.245 30.9216 68.7229 55.1547 69.1112 56.5177C76.9272 83.9492 87.9464 59.4492 91.1562 49.7315C93.2138 43.5023 99.4107 0.999998 91.4132 1C81.9464 1 88.4464 58.373 98.4464 58.3723C108.446 58.3717 113.946 45.2407 115.446 19.9485C115.527 18.5875 117.4 1.94847 111.29 1.94847C103.946 1.94847 106.622 43.5259 111.29 53.4382C116.617 64.7513 140.446 37.6924 129.63 33.7448C122.683 31.2093 121.765 61.775 133.446 53.4382" stroke="black" stroke-width="2" stroke-linecap="round"/>
<path d="M82.9458 21.9237C94.0975 21.9237 122.647 35.9999 131.101 25.6718C132.155 24.3854 131.186 18.8871 128.847 19.4961C126.629 20.0733 128.053 26.6638 129.386 27.9362C134.08 32.4169 151.77 31.6548 156.037 26.0047" stroke="black" stroke-width="2" stroke-linecap="round"/>
<path d="M91.7544 62.6667C95.8473 65.2197 109.036 69.5334 111.446 63.4492" stroke="black" stroke-width="2" stroke-linecap="round"/>
</svg>
