<svg width="108" height="108" viewBox="0 0 108 108" fill="none" xmlns="http://www.w3.org/2000/svg">
<g clip-path="url(#clip0_2281_24473)">
<path d="M54.0007 22.0015C71.6843 22.0015 85.9994 36.3166 85.9994 54.0002H54.0007V22.0015ZM22 54.0002H54.0007V86.0009C36.3152 86.0009 22 71.6857 22 54.0002Z" fill="black"/>
<path d="M54.0002 21.9995V23.754C70.6751 23.754 84.2464 37.3213 84.2464 54.0002H85.9989C85.9989 36.3289 71.6736 21.9995 54.0002 21.9995ZM54.0002 84.2464C37.3254 84.2464 23.754 70.6792 23.754 54.0002H22.0015C22.0015 71.6715 36.3269 86.0009 54.0002 86.0009M54.0002 0C24.1778 0 0 24.1778 0 54.0002C0 83.8226 24.1778 108 54.0002 108C83.8226 108 108 83.8226 108 54.0002C108 24.1778 83.8226 0 54.0002 0ZM104.489 54.0002C104.489 81.8827 81.8867 104.489 54.0002 104.489C26.1137 104.489 3.51103 81.8827 3.51103 54.0002C3.51103 26.1178 26.1178 3.51103 54.0002 3.51103C81.8827 3.51103 104.489 26.1178 104.489 54.0002Z" fill="black"/>
<path d="M30.9243 27.9482C32.6503 26.1428 33.6263 24.0582 31.9024 22.0673C30.963 20.9873 29.3858 20.7509 28.0796 21.2828L27.9492 21.3337L27.9899 21.2196C28.1835 20.7061 28.3078 19.0677 26.9018 17.9388C26.2171 17.3866 25.3572 17.1808 24.4871 17.2704C22.867 17.4335 21.6199 18.5338 18.2271 22.2914C17.046 23.6138 15.9083 24.9744 14.8159 26.371L24.1386 35.1537C27.2278 31.7588 28.4871 30.4954 30.9243 27.9462M18.759 25.8004C20.6378 23.5182 22.6307 21.4498 23.5354 20.6307C23.8207 20.3719 24.1325 20.1151 24.5095 20.0132C25.1208 19.8461 25.7525 20.2781 25.8951 20.9017C26.0378 21.5293 25.6425 22.1243 25.2023 22.6154C24.2079 23.728 20.5664 27.5101 20.5664 27.5101L18.759 25.8004ZM22.4106 29.2401C22.4106 29.2401 25.9563 25.5172 27.1137 24.3251C27.5742 23.8544 27.8677 23.5671 28.1856 23.4122C28.5951 23.2145 29.0414 23.1738 29.4428 23.4366C29.8361 23.6995 30.0175 24.1499 29.9176 24.5982C29.8015 25.128 29.3634 25.6374 29.0007 26.0246L24.3016 31.0211L22.4106 29.2401ZM55.0675 17.4742L58.0507 10.8332L58.2423 10.2443L58.1873 10.8597L58.5011 19.732C59.5706 19.8353 60.6363 19.9753 61.6963 20.1518L61.2092 7.00836C59.7203 6.8467 58.2341 6.73258 56.7507 6.66602L53.8122 13.9143L53.7083 14.4543L53.6023 13.9143L50.6639 6.66602C49.1804 6.72851 47.6936 6.8433 46.2033 7.01039L45.7183 20.1538C46.7782 19.9767 47.8439 19.836 48.9135 19.732L49.2273 10.8597L49.1723 10.2443L49.3638 10.8352L52.3471 17.4742H55.0675ZM79.8566 31.2127C80.5902 31.9931 81.6458 33.2545 82.2388 34.0187L93.1611 27.1311C92.492 26.2681 91.8037 25.4202 91.0968 24.588L84.1787 29.1301L83.708 29.5336L84.0585 29.0241L87.1151 22.968L84.9551 20.8222L78.8541 23.8585L78.3406 24.2049L78.7481 23.7362L83.3269 16.869C82.52 16.1884 81.7456 15.5648 80.7593 14.8109L73.8269 25.6496C74.7032 26.3201 75.8627 27.3063 76.6024 27.9767L83.1292 24.6145L83.549 24.3088L83.2413 24.7225L79.8566 31.2127Z" fill="black"/>
</g>
<defs>
<clipPath id="clip0_2281_24473">
<rect width="108" height="108" fill="white"/>
</clipPath>
</defs>
</svg>
