<svg width="328" height="116" viewBox="0 0 328 116" fill="none" xmlns="http://www.w3.org/2000/svg">
<rect x="11.0508" y="10.7712" width="93.9192" height="93.9015" stroke="black" stroke-width="1.1616"/>
<rect x="115.885" y="10.7712" width="93.9192" height="93.9015" stroke="black" stroke-width="1.1616"/>
<path d="M314.638 10.9102V104.673H220.923V10.9102H314.638Z" stroke="black" stroke-width="1.1616"/>
<path d="M231.629 71.1575C231.629 71.0086 231.606 70.8762 231.559 70.7604C231.516 70.6446 231.439 70.5388 231.326 70.4428C231.214 70.3469 231.055 70.2542 230.85 70.1649C230.648 70.0723 230.39 69.978 230.075 69.882C229.731 69.7761 229.414 69.6587 229.123 69.5296C228.835 69.3973 228.583 69.2451 228.368 69.0731C228.153 68.8977 227.986 68.6975 227.867 68.4725C227.748 68.2443 227.688 67.9812 227.688 67.6834C227.688 67.389 227.75 67.121 227.872 66.8795C227.998 66.6379 228.175 66.4295 228.403 66.2541C228.635 66.0755 228.908 65.9382 229.222 65.8422C229.536 65.743 229.884 65.6933 230.264 65.6933C230.8 65.6933 231.262 65.7926 231.649 65.9911C232.039 66.1896 232.339 66.456 232.547 66.7901C232.759 67.1243 232.865 67.4932 232.865 67.8969H231.629C231.629 67.6586 231.578 67.4485 231.475 67.2666C231.376 67.0813 231.224 66.9357 231.018 66.8298C230.817 66.724 230.56 66.671 230.249 66.671C229.955 66.671 229.71 66.7157 229.515 66.805C229.319 66.8943 229.174 67.0151 229.078 67.1673C228.982 67.3195 228.934 67.4915 228.934 67.6834C228.934 67.8191 228.965 67.9432 229.028 68.0557C229.091 68.1648 229.187 68.2674 229.316 68.3634C229.445 68.456 229.607 68.5437 229.803 68.6264C229.998 68.7091 230.228 68.7885 230.492 68.8646C230.893 68.9837 231.242 69.1161 231.54 69.2616C231.837 69.4039 232.085 69.566 232.284 69.748C232.482 69.93 232.631 70.1368 232.731 70.3684C232.83 70.5967 232.88 70.8564 232.88 71.1475C232.88 71.4519 232.818 71.7265 232.696 71.9714C232.573 72.2129 232.398 72.4197 232.17 72.5917C231.945 72.7605 231.674 72.8912 231.356 72.9838C231.042 73.0731 230.691 73.1178 230.304 73.1178C229.956 73.1178 229.614 73.0715 229.276 72.9789C228.942 72.8862 228.638 72.7456 228.363 72.557C228.089 72.3651 227.87 72.1269 227.708 71.8423C227.546 71.5545 227.465 71.2187 227.465 70.8349H228.711C228.711 71.0698 228.75 71.27 228.83 71.4354C228.913 71.6008 229.027 71.7365 229.172 71.8423C229.318 71.9449 229.487 72.021 229.678 72.0706C229.874 72.1203 230.082 72.1451 230.304 72.1451C230.595 72.1451 230.838 72.1037 231.033 72.021C231.232 71.9383 231.381 71.8225 231.48 71.6736C231.579 71.5247 231.629 71.3527 231.629 71.1575ZM238.072 65.7926V73.0186H236.836V65.7926H238.072ZM240.34 65.7926V66.7852H234.588V65.7926H240.34ZM246.466 65.7926H247.706V70.6215C247.706 71.1707 247.587 71.6306 247.349 72.0012C247.111 72.3717 246.787 72.6513 246.376 72.8399C245.969 73.0252 245.514 73.1178 245.012 73.1178C244.492 73.1178 244.029 73.0252 243.622 72.8399C243.215 72.6513 242.894 72.3717 242.659 72.0012C242.428 71.6306 242.312 71.1707 242.312 70.6215V65.7926H243.552V70.6215C243.552 70.9689 243.612 71.2551 243.731 71.4801C243.85 71.7017 244.019 71.8655 244.237 71.9714C244.456 72.0773 244.714 72.1302 245.012 72.1302C245.309 72.1302 245.566 72.0773 245.781 71.9714C245.999 71.8655 246.168 71.7017 246.287 71.4801C246.406 71.2551 246.466 70.9689 246.466 70.6215V65.7926ZM252.656 71.6984L254.557 65.7926H255.931L253.341 73.0186H252.413L252.656 71.6984ZM250.899 65.7926L252.785 71.6984L253.043 73.0186H252.11L249.529 65.7926H250.899ZM262.588 72.0309V73.0186H258.752V72.0309H262.588ZM259.104 65.7926V73.0186H257.858V65.7926H259.104ZM262.087 68.81V69.7827H258.752V68.81H262.087ZM262.563 65.7926V66.7852H258.752V65.7926H262.563ZM230.8 77.7926V85.0186H229.564V77.7926H230.8ZM233.068 77.7926V78.7852H227.316V77.7926H233.068ZM239.869 84.0309V85.0186H236.032V84.0309H239.869ZM236.385 77.7926V85.0186H235.139V77.7926H236.385ZM239.367 80.81V81.7827H236.032V80.81H239.367ZM239.844 77.7926V78.7852H236.032V77.7926H239.844ZM246.272 82.6661H247.513C247.473 83.1393 247.341 83.5611 247.116 83.9317C246.891 84.2989 246.575 84.5884 246.168 84.8002C245.761 85.0119 245.266 85.1178 244.684 85.1178C244.237 85.1178 243.835 85.0384 243.478 84.8796C243.121 84.7175 242.815 84.4892 242.56 84.1947C242.305 83.8969 242.11 83.538 241.974 83.1178C241.842 82.6976 241.776 82.2278 241.776 81.7083V81.1078C241.776 80.5883 241.844 80.1185 241.979 79.6983C242.118 79.2781 242.317 78.9192 242.575 78.6214C242.833 78.3203 243.142 78.0904 243.503 77.9315C243.867 77.7727 244.275 77.6933 244.729 77.6933C245.304 77.6933 245.791 77.7992 246.188 78.011C246.585 78.2227 246.893 78.5155 247.111 78.8894C247.333 79.2633 247.468 79.6917 247.518 80.1748H246.277C246.244 79.8638 246.171 79.5974 246.059 79.3757C245.95 79.1541 245.787 78.9853 245.572 78.8695C245.357 78.7504 245.076 78.6909 244.729 78.6909C244.444 78.6909 244.196 78.7438 243.984 78.8497C243.773 78.9556 243.596 79.1111 243.453 79.3162C243.311 79.5213 243.203 79.7744 243.131 80.0755C243.061 80.3733 243.026 80.7141 243.026 81.0979V81.7083C243.026 82.0723 243.058 82.4031 243.121 82.7009C243.187 82.9953 243.286 83.2485 243.419 83.4602C243.554 83.672 243.726 83.8357 243.935 83.9515C244.143 84.0673 244.393 84.1252 244.684 84.1252C245.038 84.1252 245.324 84.069 245.543 83.9565C245.764 83.844 245.931 83.6802 246.044 83.4652C246.16 83.2468 246.236 82.9805 246.272 82.6661ZM254.537 80.81V81.7976H250.7V80.81H254.537ZM251.008 77.7926V85.0186H249.762V77.7926H251.008ZM255.495 77.7926V85.0186H254.254V77.7926H255.495ZM263.829 77.7926V85.0186H262.583L259.342 79.8423V85.0186H258.097V77.7926H259.342L262.593 82.9788V77.7926H263.829ZM267.761 77.7926V85.0186H266.515V77.7926H267.761ZM271.673 77.7926V85.0186H270.427V77.7926H271.673ZM276.015 77.7926L273.087 81.2716L271.42 83.0384L271.201 81.8026L272.392 80.3336L274.497 77.7926H276.015ZM274.675 85.0186L272.298 81.5942L273.157 80.7455L276.154 85.0186H274.675ZM227.827 90.7926H230.383C230.932 90.7926 231.401 90.8753 231.788 91.0407C232.175 91.2062 232.471 91.451 232.676 91.7752C232.884 92.0962 232.989 92.4932 232.989 92.9663C232.989 93.327 232.923 93.6446 232.79 93.9192C232.658 94.1938 232.471 94.4254 232.229 94.614C231.988 94.7993 231.7 94.9432 231.366 95.0458L230.989 95.2294H228.691L228.681 94.2418H230.403C230.701 94.2418 230.949 94.1889 231.147 94.083C231.346 93.9771 231.495 93.8332 231.594 93.6512C231.697 93.4659 231.748 93.2575 231.748 93.0259C231.748 92.7744 231.698 92.5561 231.599 92.3708C231.503 92.1822 231.354 92.0383 231.152 91.939C230.951 91.8364 230.694 91.7852 230.383 91.7852H229.073V98.0186H227.827V90.7926ZM231.951 98.0186L230.254 94.7728L231.559 94.7679L233.281 97.954V98.0186H231.951ZM240.077 97.0309V98.0186H236.241V97.0309H240.077ZM236.593 90.7926V98.0186H235.347V90.7926H236.593ZM239.576 93.81V94.7827H236.241V93.81H239.576ZM240.052 90.7926V91.7852H236.241V90.7926H240.052ZM243.458 90.7926V98.0186H242.213V90.7926H243.458ZM246.406 93.9539V94.9416H243.141V93.9539H246.406ZM246.818 90.7926V91.7852H243.141V90.7926H246.818ZM253.658 97.0309V98.0186H249.822V97.0309H253.658ZM250.174 90.7926V98.0186H248.929V90.7926H250.174ZM253.157 93.81V94.7827H249.822V93.81H253.157ZM253.634 90.7926V91.7852H249.822V90.7926H253.634ZM255.794 90.7926H258.35C258.899 90.7926 259.367 90.8753 259.754 91.0407C260.141 91.2062 260.437 91.451 260.643 91.7752C260.851 92.0962 260.955 92.4932 260.955 92.9663C260.955 93.327 260.889 93.6446 260.757 93.9192C260.624 94.1938 260.437 94.4254 260.196 94.614C259.954 94.7993 259.666 94.9432 259.332 95.0458L258.955 95.2294H256.657L256.647 94.2418H258.37C258.667 94.2418 258.915 94.1889 259.114 94.083C259.312 93.9771 259.461 93.8332 259.561 93.6512C259.663 93.4659 259.714 93.2575 259.714 93.0259C259.714 92.7744 259.665 92.5561 259.566 92.3708C259.47 92.1822 259.321 92.0383 259.119 91.939C258.917 91.8364 258.661 91.7852 258.35 91.7852H257.039V98.0186H255.794V90.7926ZM259.918 98.0186L258.221 94.7728L259.526 94.7679L261.248 97.954V98.0186H259.918ZM266.128 91.7554L263.969 98.0186H262.664L265.383 90.7926H266.217L266.128 91.7554ZM267.934 98.0186L265.771 91.7554L265.676 90.7926H266.515L269.245 98.0186H267.934ZM267.83 95.3386V96.3262H263.9V95.3386H267.83ZM273.519 90.7926V98.0186H272.283V90.7926H273.519ZM275.787 90.7926V91.7852H270.035V90.7926H275.787Z" fill="black"/>
<path d="M67.6967 85.5225V65.3046H78.8986V86.6342C78.8984 88.1475 79.2447 89.2252 79.9376 89.8672C80.6344 90.5101 81.5642 90.8315 82.7269 90.8313C83.8922 90.8315 84.83 90.5101 85.5403 89.8672C86.2504 89.2251 86.6102 88.1474 86.6102 86.6342V65.3046H97.7589V85.5225C97.7589 87.9354 97.3959 89.9851 96.6688 91.6755C95.9439 93.3656 94.9229 94.7384 93.6161 95.8024C92.3056 96.8664 90.7213 97.6378 88.8631 98.1166C87.004 98.6021 84.9575 98.8426 82.7272 98.8426C80.5301 98.8426 78.5086 98.6021 76.6663 98.1166C74.8252 97.638 73.2393 96.8664 71.9156 95.8024C70.5885 94.7384 69.5526 93.3656 68.8118 91.6755C68.0667 89.9851 67.6967 87.9354 67.6967 85.5225ZM47.912 90.5897C47.912 90.8133 48.0221 90.9266 48.2501 90.9266C48.4089 90.9266 48.4917 90.813 48.4917 90.5897C48.7821 88.4651 49.1541 86.1431 49.6068 83.6166C50.048 81.1529 50.5007 78.6913 50.9647 76.2318C51.4175 73.8383 51.8539 71.6568 52.2727 69.6978C52.6935 67.7317 53.0167 66.2719 53.2449 65.3043H63.7185V97.9743H57.416V70.4691C57.416 70.3067 57.3004 70.2274 57.0756 70.2274C56.9475 70.2274 56.8816 70.3067 56.8816 70.4691C56.5939 71.906 56.3193 73.3456 56.058 74.7876C55.7642 76.379 55.4105 78.2439 54.9882 80.3836C54.4949 82.8875 53.9866 85.3885 53.4636 87.8864C52.8657 90.7518 52.1615 94.112 51.3536 97.9743H44.8048C44.1059 94.6947 43.4192 91.4126 42.7447 88.128C42.2453 85.7005 41.7518 83.2718 41.2642 80.8419C40.8896 78.9768 40.5179 77.1112 40.1491 75.245C39.8369 73.6508 39.5136 72.0589 39.1791 70.4693C39.1791 70.307 39.0656 70.2277 38.8388 70.2277C38.7116 70.2277 38.646 70.307 38.646 70.4693V97.9746H32.8766V65.3046H43.3978C43.6052 66.2187 43.7996 67.1358 43.9809 68.0555C44.2045 69.1843 44.4586 70.4435 44.7307 71.8444C45.0075 73.2398 45.2877 74.7394 45.5816 76.3276C45.8708 77.9248 46.1624 79.547 46.4539 81.2054C46.7391 82.8276 47.0061 84.4528 47.2549 86.081C47.484 87.5824 47.7031 89.0853 47.912 90.5897ZM17.0684 65.3046H20.2686V95.5616H29.5785V97.9746H17.0684V65.3046ZM122.488 59.7065V52.7686H123.781V58.6777H127.23V59.7065H122.488ZM131.951 59.8483C130.458 59.8483 129.051 59.3116 129.051 56.9318V52.7686H130.348V57.0508C130.348 58.1512 130.876 58.8943 131.951 58.8943C133.009 58.8943 133.525 58.1999 133.525 57.0508V52.7686H134.822V56.9318C134.821 59.1426 133.385 59.8483 131.951 59.8483ZM139.495 53.7499H138.759V58.7163H139.495C140.97 58.7163 141.776 58.0629 141.776 56.1889C141.776 54.5633 140.997 53.7499 139.495 53.7499ZM139.554 59.7065H137.462V52.7686H139.554C142.025 52.7686 143.129 54.1956 143.129 56.1886C143.129 58.4688 141.795 59.7065 139.554 59.7065ZM152.106 59.7065H150.728L149.384 54.8389L148.04 59.7065H146.665L144.554 52.7686H145.997L147.413 58.1999L148.748 53.3334H150.12L151.449 58.1999L152.853 52.7686H154.209L152.106 59.7065ZM156.17 52.7686H157.465V59.7065H156.17V52.7686ZM163.244 59.8483C161.132 59.8483 159.868 58.3986 159.868 56.1785C159.868 53.778 161.63 52.6289 163.244 52.6289C164.381 52.6289 165.117 52.9861 165.586 53.4025L165.057 54.3736C164.679 53.947 164.163 53.5602 163.244 53.5602C162.078 53.5602 161.211 54.6028 161.211 56.1785C161.211 57.7937 162.078 58.9146 163.303 58.9146C164.011 58.9146 164.421 58.7354 164.588 58.5789V56.8127H163.034V55.8611H165.836V59.1928C165.236 59.559 164.43 59.8483 163.244 59.8483ZM167.618 56.1683H170.338V57.0317H167.618V56.1683ZM128.776 72.4568L128.538 67.182L126.772 71.504H125.595L123.793 67.182L123.583 72.4568H122.318L122.726 65.5145H124.342L126.243 70.1142L128.049 65.5145H129.662L130.069 72.4568H128.776ZM135.171 66.8054L134.085 69.8386H136.277L135.171 66.8054ZM137.223 72.4568L136.614 70.769H133.767L133.15 72.4568H131.783L134.553 65.5145H135.91L138.659 72.4568H137.223ZM145.024 72.4568L143.141 69.6571L141.22 72.4568H139.665L142.335 68.8585L139.874 65.5145H141.498L143.212 68.0918L144.885 65.5145H146.44L143.988 68.8585L146.648 72.4568H145.024ZM148.552 65.5145H149.848V72.4568H148.552V65.5145ZM158.915 72.4568L158.674 67.182L156.911 71.504H155.734L153.932 67.182L153.722 72.4568H152.457L152.867 65.5145H154.481L156.382 70.1142L158.187 65.5145H159.802L160.209 72.4568H158.915ZM162.82 65.5145H164.113V72.4568H162.82V65.5145ZM171.636 72.4568V71.4245H168.19V65.5145H166.893V72.4568H171.636ZM173.84 65.5145H175.133V72.4568H173.84V65.5145ZM180.446 66.8054L179.359 69.8386H181.551L180.446 66.8054ZM182.497 72.4568L181.889 70.769H179.039L178.422 72.4568H177.058L179.825 65.5145H181.181L183.933 72.4568H182.497ZM189.998 72.4568L187.091 67.2819V72.4568H185.814V65.5145H187.508L190.419 70.6895V65.5145H191.692V72.4568H189.998ZM199.075 70.5306C199.075 69.4826 198.439 68.9857 197.652 68.6477L196.277 68.0645C195.847 67.8854 195.399 67.6469 195.399 67.1504C195.399 66.7534 195.749 66.3088 196.516 66.3088C197.383 66.3088 197.871 66.6944 198.269 67.1823L198.818 66.3201C198.317 65.7245 197.442 65.3763 196.516 65.3763C195.399 65.3763 194.073 66.0309 194.073 67.3693C194.073 68.2234 194.651 68.7873 195.399 69.105L196.774 69.6893C197.312 69.9185 197.72 70.1749 197.72 70.7217C197.72 71.1663 197.312 71.6632 196.436 71.6632C195.549 71.6632 194.973 71.2662 194.471 70.7014L193.925 71.5726C194.253 71.9605 195.041 72.5936 196.415 72.5936C198.507 72.593 199.075 71.2453 199.075 70.5306ZM200.74 68.9154H203.459V69.7799H200.74V68.9154ZM125.289 85.3433C123.793 85.3433 122.39 84.8047 122.39 82.428V78.2625H123.683V82.5436C123.683 83.6439 124.211 84.3902 125.289 84.3902C126.343 84.3902 126.863 83.6959 126.863 82.5436V78.2625H128.156V82.428C128.156 84.6377 126.724 85.3433 125.289 85.3433ZM134.983 85.2016L132.073 80.0252V85.2016H130.796V78.2625H132.491L135.401 83.4374V78.2625H136.674V85.2016H134.983ZM139.454 78.2625H140.751V85.2016H139.454V78.2625ZM146.616 85.2016H145.244L142.472 78.2625H143.937L145.961 83.8937L147.983 78.2625H149.388L146.616 85.2016ZM151.308 85.2016V78.2625H155.982V79.2743H152.605V81.0986H155.714V82.09H152.605V84.1727H156.113V85.2016H151.308ZM160.745 79.2426H159.627V81.2574H160.745C161.743 81.2574 161.99 80.7719 161.99 80.1957C161.99 79.6715 161.581 79.2426 160.745 79.2426ZM162.349 85.2016L160.946 83.111C160.586 82.5755 160.277 82.207 159.95 82.207H159.628V85.2016H158.335V78.2625H160.995C162.22 78.2625 163.326 78.9058 163.326 80.1954C163.326 81.5034 162.149 81.9913 161.552 82.0592C161.752 82.1873 162.01 82.5244 162.101 82.6548L163.895 85.2016H162.349ZM167.76 85.3433C166.384 85.3433 165.598 84.7059 165.268 84.3223L165.816 83.4488C166.316 84.0136 166.894 84.4106 167.78 84.4106C168.657 84.4106 169.065 83.9137 169.065 83.4691C169.065 82.9211 168.657 82.6638 168.119 82.4367L166.744 81.8513C165.995 81.5336 165.418 80.9699 165.418 80.1156C165.418 78.7771 166.744 78.1225 167.859 78.1225C168.787 78.1225 169.662 78.4684 170.162 79.064L169.614 79.9262C169.216 79.4418 168.728 79.0562 167.859 79.0562C167.092 79.0562 166.744 79.5008 166.744 79.8978C166.744 80.3946 167.192 80.6328 167.621 80.8111L168.994 81.3954C169.781 81.7334 170.421 82.2291 170.421 83.2783C170.42 83.9933 169.852 85.3433 167.76 85.3433ZM172.751 78.2625H174.048V85.2016H172.751V78.2625ZM179.615 79.2949V85.2016H178.322V79.2949H175.98V78.2625H181.957V79.2949H179.615ZM187.357 77.6294C186.988 77.6294 186.681 77.3117 186.681 76.9624C186.681 76.6174 186.98 76.3 187.357 76.3C187.735 76.3 188.035 76.6177 188.035 76.9624C188.035 77.312 187.728 77.6294 187.357 77.6294ZM186.38 79.5522L185.294 82.5843H187.486L186.38 79.5522ZM185.434 77.6294C185.066 77.6294 184.758 77.3117 184.758 76.9624C184.758 76.6174 185.055 76.3 185.434 76.3C185.814 76.3 186.113 76.6177 186.113 76.9624C186.113 77.312 185.802 77.6294 185.434 77.6294ZM188.435 85.2016L187.827 83.517H184.975L184.359 85.2016H182.995L185.763 78.2625H187.119L189.868 85.2016H188.435ZM194.539 79.2949V85.2016H193.246V79.2949H190.906V78.2625H196.883V79.2949H194.539ZM128.776 97.9484L128.538 92.6771L126.772 96.9991H125.595L123.793 92.6771L123.583 97.9484H122.318L122.726 91.0096H124.342L126.243 95.6093L128.049 91.0096H129.662L130.069 97.9484H128.776ZM136.308 90.3742C135.938 90.3742 135.629 90.0565 135.629 89.7107C135.629 89.3648 135.929 89.0471 136.308 89.0471C136.685 89.0471 136.996 89.3648 136.996 89.7107C136.996 90.0565 136.674 90.3742 136.308 90.3742ZM134.383 90.3742C134.017 90.3742 133.707 90.0565 133.707 89.7107C133.707 89.3648 134.005 89.0471 134.383 89.0471C134.761 89.0471 135.072 89.3648 135.072 89.7107C135.072 90.0565 134.753 90.3742 134.383 90.3742ZM135.442 98.0881C133.945 98.0881 132.542 97.555 132.542 95.1728V91.0096H133.835V95.2942C133.835 96.3945 134.364 97.1388 135.442 97.1388C136.495 97.1388 137.015 96.4433 137.015 95.2942V91.0096H138.308V95.1728C138.308 97.3848 136.877 98.0881 135.442 98.0881ZM145.136 97.9484L142.225 92.7758V97.9484H140.949V91.0096H142.644L145.554 96.1857V91.0096H146.826V97.9484H145.136ZM152.497 98.0881C150.246 98.0881 149.189 96.3446 149.189 94.4297C149.189 92.5557 150.473 90.8699 152.497 90.8699C153.495 90.8699 154.271 91.199 154.8 91.7525L154.29 92.7166C153.901 92.2798 153.516 91.8227 152.518 91.8227C151.34 91.8227 150.545 92.964 150.545 94.4297C150.545 95.868 151.401 97.1385 152.529 97.1385C153.357 97.1385 153.902 96.8594 154.489 96.2333L154.987 97.2259C154.18 97.8419 153.595 98.0881 152.497 98.0881ZM161.413 97.9484V94.8063H158.306V97.9484H157.011V91.0096H158.306V93.8567H161.413V91.0096H162.709V97.9484H161.413ZM165.45 97.9484V91.0096H170.123V92.0225H166.746V93.8454H169.854V94.838H166.746V96.9196H170.252V97.9484H165.45ZM176.659 97.9484L173.75 92.7758V97.9484H172.473V91.0096H174.166L177.078 96.1857V91.0096H178.354V97.9484H176.659Z" fill="black"/>
</svg>
