<svg width="358" height="70" viewBox="0 0 358 70" fill="none" xmlns="http://www.w3.org/2000/svg">
<path d="M149.679 21.3955H126.678C118.05 21.3955 111.06 28.3582 111.06 36.9521V51.1824C111.06 59.7763 118.05 66.7387 126.678 66.7387H147.047C147.391 66.7387 147.718 66.6019 147.961 66.3599L155.094 59.2553C155.242 59.1079 155.496 59.2131 155.496 59.4184V65.8283C155.496 66.3283 155.903 66.7337 156.405 66.7337H164.399C164.901 66.7337 165.308 66.3283 165.308 65.8283V36.9521C165.297 28.3582 158.307 21.3955 149.679 21.3955ZM155.491 56.2345C155.491 56.624 155.174 56.9398 154.783 56.9398H126.626C123.609 56.9398 121.162 54.5032 121.162 51.4981V36.6258C121.162 33.6207 123.609 31.1841 126.626 31.1841H150.033C153.05 31.1841 155.496 33.6207 155.496 36.6258V56.2345H155.491Z" fill="black"/>
<path d="M228.158 51.1825V4.08683C228.158 3.58688 227.751 3.18164 227.25 3.18164H219.256C218.753 3.18164 218.346 3.58688 218.346 4.08683V28.7055C218.346 28.9109 218.094 29.0161 217.944 28.8689L210.812 21.7641C210.569 21.5221 210.241 21.3852 209.898 21.3852H189.529C180.901 21.3852 173.91 28.3477 173.91 36.9418V51.1722C173.91 59.766 180.901 66.7285 189.529 66.7285H212.53C221.162 66.7391 228.158 59.7766 228.158 51.1825ZM218.346 51.5088C218.346 54.5139 215.899 56.9505 212.884 56.9505H189.476C186.459 56.9505 184.013 54.5139 184.013 51.5088V36.6365C184.013 33.6314 186.459 31.195 189.476 31.195H217.632C218.024 31.195 218.342 31.5106 218.342 31.9001V51.5088H218.346Z" fill="black"/>
<path d="M275.58 21.3955H252.579C243.951 21.3955 236.96 28.3582 236.96 36.9521V51.1824C236.96 59.7763 243.951 66.7387 252.579 66.7387H272.949C273.293 66.7387 273.619 66.6019 273.863 66.3599L280.996 59.2553C281.143 59.1079 281.398 59.2131 281.398 59.4184V65.8283C281.398 66.3283 281.805 66.7337 282.306 66.7337H290.3C290.803 66.7337 291.21 66.3283 291.21 65.8283V36.9521C291.199 28.3582 284.208 21.3955 275.58 21.3955ZM281.392 56.2345C281.392 56.624 281.076 56.9398 280.684 56.9398H252.527C249.509 56.9398 247.064 54.5032 247.064 51.4981V36.6258C247.064 33.6207 249.509 31.1841 252.527 31.1841H275.934C278.951 31.1841 281.398 33.6207 281.398 36.6258V56.2345H281.392Z" fill="black"/>
<path d="M109.126 66.081L74.7813 31.1737C75.1142 31.1631 75.463 31.1577 75.8275 31.1577H103.599C103.773 31.1577 103.911 31.0158 103.911 30.8474V21.7061C103.911 21.5323 103.768 21.3955 103.599 21.3955H73.6347C65.2124 21.3955 58.3857 28.1951 58.3857 36.5836V66.4284C58.3857 66.6019 58.5283 66.7387 58.6974 66.7387H67.8807C68.0551 66.7387 68.1924 66.5968 68.1924 66.4284V38.8781C68.1924 38.5729 68.1977 38.2782 68.2082 37.994L95.742 66.6861C95.8264 66.7704 95.9374 66.8179 96.0589 66.8179H108.825C109.2 66.8179 109.395 66.3546 109.126 66.081Z" fill="black"/>
<path d="M351.556 66.081L317.236 31.2053C317.775 31.1737 318.352 31.1631 318.976 31.1631H346.748C346.921 31.1631 347.06 31.0209 347.06 30.8525V21.7061C347.06 21.5323 346.917 21.3955 346.748 21.3955H316.784C308.36 21.3955 301.535 28.1951 301.535 36.5836V66.4284C301.535 66.6019 301.676 66.7387 301.847 66.7387H311.028C311.203 66.7387 311.34 66.5968 311.34 66.4284V38.8781C311.34 38.8255 311.34 38.7835 311.34 38.7309L338.167 66.6861C338.251 66.7704 338.363 66.8179 338.483 66.8179H351.248C351.63 66.8179 351.826 66.3546 351.556 66.081Z" fill="black"/>
<path d="M0 21.3955V31.3052H21.8588V66.7387H31.9035V31.3052V22.6218L40.6269 31.3052H53.6724V21.3955H0Z" fill="black"/>
</svg>
